<svg xmlns="http://www.w3.org/2000/svg" xmlns:xlink="http://www.w3.org/1999/xlink" width="500" zoomAndPan="magnify" viewBox="0 0 375 374.999991" height="500" preserveAspectRatio="xMidYMid meet" version="1.0"><path fill="#ffffff" d="M 202.546875 207.222656 C 204.335938 206.355469 205.808594 205.589844 207.25 204.839844 C 209.03125 207.347656 210.683594 209.675781 212.9375 212.851562 C 208.839844 210.960938 204.421875 211.671875 202.546875 207.222656 Z M 21.457031 206.652344 C 23.171875 205.679688 24.78125 204.679688 26.417969 204.632812 C 26.988281 204.617188 28.3125 207.144531 28.042969 208.1875 C 27.757812 209.296875 25.449219 211.007812 24.976562 210.742188 C 23.527344 209.9375 22.535156 208.3125 21.457031 206.652344 Z M 49.378906 188.363281 C 47.167969 190.617188 45.359375 189.867188 44.175781 187.917969 C 43.625 187.003906 43.554688 184.984375 44.171875 184.371094 C 45.082031 183.457031 46.796875 183.34375 48.171875 182.890625 C 48.652344 184.621094 49.128906 186.355469 49.378906 188.363281 Z M 180.367188 119.335938 C 179.714844 117.460938 179.195312 115.707031 179.183594 113.953125 C 179.179688 113.621094 181.523438 112.695312 182.203125 113.078125 C 183.21875 113.648438 184.570312 115.613281 184.273438 116.144531 C 183.519531 117.496094 181.929688 118.386719 180.367188 119.335938 Z M 123.859375 81.425781 C 125.296875 82.570312 126.609375 83.636719 127.265625 85.019531 C 127.429688 85.371094 125.601562 87.296875 124.554688 87.425781 C 123.523438 87.550781 121.304688 86.097656 121.382812 85.71875 C 121.707031 84.21875 122.726562 82.871094 123.859375 81.425781 Z M 343.214844 198.707031 C 341.753906 197.503906 340.65625 196.277344 339.5625 195.054688 C 340.5625 194.191406 341.507812 192.734375 342.585938 192.628906 C 343.613281 192.527344 345.789062 194.007812 345.703125 194.480469 C 345.441406 195.960938 344.351562 197.296875 343.214844 198.707031 Z M 264.839844 189.933594 C 264.316406 191.679688 263.8125 193.3125 262.761719 194.421875 C 262.46875 194.734375 260.207031 193.78125 259.5 192.890625 C 259.035156 192.308594 259.5 189.992188 259.96875 189.851562 C 261.421875 189.414062 263.074219 189.648438 264.839844 189.933594 Z M 318.703125 172.382812 C 316.867188 172.289062 315.195312 172.183594 313.832031 171.484375 C 313.496094 171.308594 313.742188 168.769531 314.457031 168.101562 C 315.230469 167.375 317.824219 167.132812 317.957031 167.429688 C 318.605469 168.867188 318.695312 170.558594 318.703125 172.382812 Z M 106.800781 97.898438 C 105.6875 96.425781 104.703125 95.019531 104.3125 93.460938 C 104.234375 93.152344 106.433594 91.800781 107.582031 91.804688 C 108.4375 91.8125 110.140625 93.609375 109.992188 93.945312 C 109.335938 95.402344 108.140625 96.613281 106.800781 97.898438 Z M 223.839844 140.738281 C 223.804688 142.546875 223.777344 144.246094 223.0625 145.570312 C 222.839844 145.992188 220.207031 145.859375 219.679688 145.191406 C 218.933594 144.242188 219.117188 142.5625 218.902344 141.195312 C 220.460938 140.957031 222.023438 140.71875 223.839844 140.738281 Z M 92.335938 110.050781 C 90.65625 110.746094 89.101562 111.429688 87.605469 111.3125 C 87.148438 111.277344 86.285156 108.816406 86.65625 107.886719 C 87.046875 106.90625 89.359375 105.617188 89.675781 105.875 C 90.867188 106.847656 91.585938 108.398438 92.335938 110.050781 Z M 102.695312 122.214844 C 104.527344 122.652344 106.046875 123.296875 107.5625 123.9375 C 107.0625 125.113281 106.859375 126.796875 105.972656 127.324219 C 105.070312 127.863281 102.503906 127.546875 102.382812 127.121094 C 101.972656 125.671875 102.320312 124.003906 102.695312 122.214844 Z M 164.789062 123.871094 C 164.292969 125.554688 163.851562 127.253906 162.765625 128.273438 C 162.339844 128.671875 159.925781 127.851562 159.414062 126.992188 C 158.890625 126.113281 159.363281 123.5 159.792969 123.402344 C 161.296875 123.0625 162.972656 123.484375 164.789062 123.871094 Z M 131.734375 234.398438 C 130.546875 235.742188 129.378906 236.949219 127.957031 237.621094 C 127.632812 237.773438 125.820312 236.109375 125.796875 235.253906 C 125.765625 234.121094 126.820312 232.957031 127.40625 231.808594 C 128.824219 232.558594 130.242188 233.3125 131.734375 234.398438 Z M 298.148438 134.90625 C 299.4375 133.648438 300.636719 132.410156 302.082031 131.976562 C 302.550781 131.835938 304.285156 133.800781 304.289062 134.804688 C 304.289062 135.855469 302.609375 137.914062 302.191406 137.789062 C 300.722656 137.347656 299.480469 136.152344 298.148438 134.90625 Z M 349.425781 174.832031 C 347.4375 175.019531 345.636719 175.011719 343.90625 174.660156 C 343.675781 174.613281 343.390625 172.285156 343.824219 171.972656 C 344.957031 171.15625 346.898438 170.109375 347.734375 170.570312 C 348.777344 171.144531 349.035156 173.140625 349.425781 174.832031 Z M 124.851562 171.324219 C 124.164062 172.859375 123.601562 174.476562 122.476562 175.144531 C 121.910156 175.480469 119.671875 174.308594 119.371094 173.421875 C 119.042969 172.441406 119.898438 170.085938 120.542969 169.964844 C 121.832031 169.722656 123.332031 170.601562 124.851562 171.324219 Z M 336.039062 147.964844 C 334.734375 149.117188 333.527344 150.296875 332.144531 150.550781 C 331.644531 150.644531 330.152344 148.507812 330.183594 147.421875 C 330.214844 146.367188 331.617188 145.347656 332.417969 144.316406 C 333.632812 145.417969 334.847656 146.523438 336.039062 147.964844 Z M 49.425781 130.574219 C 50.910156 129.707031 52.269531 129.164062 53.628906 128.621094 C 54.132812 129.9375 55.167969 131.34375 54.960938 132.535156 C 54.792969 133.480469 53.105469 134.15625 52.089844 134.953125 C 51.160156 133.601562 50.226562 132.25 49.425781 130.574219 Z M 240.902344 87.417969 C 241.46875 85.636719 242.171875 84.171875 242.871094 82.703125 C 243.914062 83.203125 245.375 83.453125 245.882812 84.28125 C 246.375 85.085938 246.121094 87.398438 245.804688 87.476562 C 244.289062 87.855469 242.640625 87.699219 240.902344 87.417969 Z M 157.007812 72.8125 C 157.777344 74.320312 158.644531 75.773438 158.476562 77.09375 C 158.398438 77.699219 156.097656 78.628906 155.121094 78.339844 C 154.066406 78.027344 153.375 76.46875 152.527344 75.453125 C 153.914062 74.539062 155.300781 73.625 157.007812 72.8125 Z M 198.539062 252.0625 C 200.308594 252.535156 201.769531 253.171875 203.230469 253.808594 C 202.628906 254.914062 202.277344 256.519531 201.355469 256.976562 C 200.460938 257.425781 198.113281 256.984375 197.929688 256.429688 C 197.523438 255.195312 198.070312 253.648438 198.539062 252.0625 Z M 104.835938 249.070312 C 105.859375 247.503906 106.933594 246.296875 108.007812 245.085938 C 108.960938 246.007812 110.507812 246.820312 110.6875 247.875 C 110.859375 248.863281 109.628906 251 108.9375 251.035156 C 107.617188 251.097656 106.242188 250.023438 104.835938 249.070312 Z M 338.371094 218.605469 C 336.679688 218.269531 335.046875 218.027344 334.011719 217.113281 C 333.648438 216.792969 334.464844 214.496094 335.300781 213.6875 C 335.882812 213.128906 338.351562 213.386719 338.394531 213.59375 C 338.703125 215.164062 338.621094 216.8125 338.371094 218.605469 Z M 321.5 210.804688 C 319.96875 211.925781 318.558594 212.839844 317.015625 213.3125 C 316.785156 213.382812 315.347656 211.292969 315.492188 210.363281 C 315.671875 209.234375 316.9375 208.28125 317.734375 207.25 C 319.015625 208.316406 320.296875 209.386719 321.5 210.804688 Z M 59.296875 200.882812 C 62.128906 201.132812 63.703125 202.417969 62.765625 205.066406 C 62.449219 205.960938 61.019531 206.984375 60.089844 206.992188 C 59.136719 207 57.355469 205.800781 57.382812 205.195312 C 57.445312 203.789062 58.378906 202.425781 59.296875 200.882812 Z M 67.3125 123.648438 C 65.949219 122.421875 64.628906 121.253906 64.09375 119.796875 C 63.925781 119.335938 65.808594 117.480469 66.835938 117.410156 C 67.78125 117.34375 69.703125 118.863281 69.65625 119.589844 C 69.574219 120.960938 68.386719 122.261719 67.3125 123.648438 Z M 273.296875 211.960938 C 274.765625 210.851562 276.152344 209.828125 277.6875 209.484375 C 278.070312 209.398438 279.53125 211.558594 279.425781 212.574219 C 279.320312 213.601562 277.457031 215.429688 277.101562 215.265625 C 275.667969 214.625 274.523438 213.34375 273.296875 211.960938 Z M 302.878906 158.847656 C 304.320312 160.019531 305.609375 161.140625 306.34375 162.554688 C 306.496094 162.847656 304.636719 164.796875 303.574219 164.925781 C 302.550781 165.050781 300.339844 163.589844 300.421875 163.210938 C 300.75 161.695312 301.769531 160.324219 302.878906 158.847656 Z M 287.496094 128.375 C 288.167969 130.085938 288.777344 131.695312 288.667969 133.253906 C 288.632812 133.765625 286.402344 134.78125 285.761719 134.445312 C 284.773438 133.925781 283.46875 132.03125 283.757812 131.457031 C 284.417969 130.148438 285.964844 129.292969 287.496094 128.375 Z M 261.722656 167.871094 C 261.328125 169.621094 260.96875 171.28125 260.003906 172.441406 C 259.714844 172.792969 257.257812 172.101562 256.703125 171.273438 C 256.113281 170.398438 256.371094 167.757812 256.675781 167.6875 C 258.21875 167.332031 259.894531 167.5625 261.722656 167.871094 Z M 257.765625 144.359375 C 256.324219 145.503906 254.902344 146.277344 253.480469 147.054688 C 252.980469 145.855469 252.054688 144.632812 252.117188 143.464844 C 252.164062 142.535156 253.417969 141.664062 254.132812 140.769531 C 255.351562 141.84375 256.566406 142.917969 257.765625 144.359375 Z M 190.324219 229.394531 C 190.582031 231.222656 190.765625 232.917969 190.367188 234.46875 C 190.269531 234.84375 187.84375 235.238281 187.242188 234.730469 C 186.359375 233.984375 185.453125 231.679688 185.789062 231.371094 C 186.910156 230.332031 188.578125 229.882812 190.324219 229.394531 Z M 102.75 173.480469 C 102.265625 171.683594 101.851562 170.019531 102.105469 168.464844 C 102.164062 168.105469 104.824219 167.59375 105.730469 168.117188 C 106.664062 168.652344 107.625 171.171875 107.335938 171.433594 C 106.171875 172.46875 104.527344 172.960938 102.75 173.480469 Z M 222.117188 262.46875 C 223.0625 260.851562 223.957031 259.390625 225.242188 258.480469 C 225.589844 258.230469 227.742188 259.492188 227.949219 260.332031 C 228.207031 261.402344 227.402344 263.753906 226.925781 263.789062 C 225.390625 263.90625 223.789062 263.210938 222.117188 262.46875 Z M 171.390625 81.9375 C 171.921875 80.140625 172.59375 78.667969 173.265625 77.199219 C 174.472656 77.753906 176.050781 78.027344 176.75 78.960938 C 177.222656 79.59375 176.71875 81.976562 176.199219 82.140625 C 174.773438 82.585938 173.105469 82.273438 171.390625 81.9375 Z M 144.207031 106.691406 C 141.089844 106.746094 137.96875 106.789062 134.851562 106.859375 C 131.78125 106.925781 129.289062 106.71875 127.777344 103.042969 C 127.15625 101.523438 123.652344 100.417969 121.519531 100.507812 C 119.414062 100.597656 116.710938 101.933594 115.457031 103.613281 C 113.054688 106.832031 114.242188 111.109375 117.453125 113.488281 C 120.929688 116.066406 124.089844 114.890625 127.320312 112.804688 C 128.675781 111.929688 130.351562 111.308594 131.953125 111.101562 C 139.152344 110.171875 146.734375 110.542969 153.507812 108.359375 C 162.972656 105.308594 172.175781 100.804688 174.746094 89.402344 C 174.949219 88.496094 176.359375 87.761719 177.332031 87.148438 C 181.542969 84.492188 182.796875 79.660156 180.179688 75.90625 C 178.082031 72.902344 172.359375 72.070312 169.191406 74.308594 C 166.179688 76.433594 165.621094 82.683594 168.753906 85.578125 C 170.941406 87.601562 170.683594 89.398438 169.5 91.246094 C 168.03125 93.542969 166.335938 95.828125 164.28125 97.589844 C 158.726562 102.347656 152.148438 105.089844 144.207031 106.691406 Z M 218.632812 265.40625 C 220.589844 268.78125 224.066406 269.90625 227.0625 268.535156 C 229.445312 267.445312 230.941406 264.304688 232.679688 261.960938 C 233.289062 261.136719 233.679688 259.984375 233.75 258.953125 C 233.964844 255.871094 235.109375 252.125 233.796875 249.839844 C 231.828125 246.414062 228.550781 242.816406 224.996094 241.414062 C 216.515625 238.074219 207.527344 236.042969 198.804688 233.292969 C 197.667969 232.933594 196.402344 231.613281 196.015625 230.464844 C 194.234375 225.175781 190.148438 223.296875 185.023438 225.445312 C 183.246094 226.191406 181.152344 226.910156 179.324219 226.683594 C 166.660156 225.117188 153.957031 223.714844 141.410156 221.457031 C 126.601562 218.792969 113.203125 212.933594 102.640625 201.636719 C 95.910156 194.4375 94.96875 187.628906 100.300781 180.292969 C 101.050781 179.265625 102.617188 178.398438 103.890625 178.265625 C 109.289062 177.707031 112.140625 174.875 111.792969 169.988281 C 111.484375 165.660156 107.503906 162.566406 102.945312 163.117188 C 98.914062 163.601562 96.460938 167.8125 96.839844 172.628906 C 97.003906 174.734375 96.578125 177.222656 95.535156 179.03125 C 91.199219 186.554688 91.324219 193.855469 96.414062 200.832031 C 107.078125 215.441406 122.453125 222.207031 139.421875 225.554688 C 151.597656 227.957031 164.039062 229.003906 176.359375 230.675781 C 178.609375 230.980469 180.691406 231.050781 181.5625 234.109375 C 182.980469 239.070312 187.40625 240.738281 192.289062 238.730469 C 193.40625 238.269531 194.714844 237.238281 195.644531 237.5 C 205.484375 240.261719 215.390625 242.886719 225 246.324219 C 228.457031 247.558594 231.234375 250.847656 230.824219 254.039062 C 226.980469 254.617188 223.484375 254.460938 220.628906 255.738281 C 216.75 257.46875 217.355469 261.277344 218.632812 265.40625 Z M 326.0625 169.757812 C 336.832031 185.898438 336.457031 192.371094 324.847656 205.644531 C 325.261719 206.917969 325.867188 208.195312 326.074219 209.53125 C 326.644531 213.21875 323.632812 217.242188 320.109375 217.699219 C 315.070312 218.355469 311.917969 216.269531 311.144531 211.769531 C 310.410156 207.480469 312.8125 203.785156 316.851562 203.007812 C 328.445312 200.773438 333.566406 186.53125 326.207031 177.078125 C 324.640625 175.066406 323.3125 174.519531 320.847656 176.144531 C 314.914062 180.058594 309.355469 176.636719 309.175781 169.210938 C 308.589844 168.945312 307.90625 168.335938 307.433594 168.472656 C 302.242188 169.957031 299.496094 175.066406 300.367188 180.488281 C 302.46875 193.585938 299.84375 200.898438 288.730469 206.59375 C 285.96875 208.007812 283.730469 209.613281 283.890625 213.609375 C 284.039062 217.480469 279.496094 220.371094 275.496094 219.820312 C 271.296875 219.242188 268.484375 215.457031 269.007812 211.089844 C 269.457031 207.335938 273.023438 204.546875 277.007812 204.847656 C 289.195312 205.757812 298.125 196.0625 296.265625 183.914062 C 295.984375 182.085938 295.617188 180.269531 295.171875 177.785156 C 284.039062 184.703125 275.289062 178.582031 266.5 173.277344 C 261.226562 177.910156 257.496094 178.449219 253.734375 175.210938 C 250.871094 172.75 250.550781 168.648438 252.941406 165.09375 C 255.238281 161.683594 259.128906 161.308594 265.605469 164.402344 C 265.988281 160.085938 266.339844 156.125 266.785156 151.082031 C 262.359375 151.285156 258.949219 151.316406 255.5625 151.621094 C 251.410156 151.992188 247.859375 149.386719 247.1875 145.226562 C 246.554688 141.316406 248.917969 137.695312 252.746094 136.726562 C 256.859375 135.683594 260.433594 137.742188 261.746094 141.917969 C 263.605469 147.828125 265.5 148.851562 271.148438 145.910156 C 274.925781 143.941406 278.25 141.085938 281.425781 138.871094 C 280.308594 135.898438 279.003906 133.824219 278.835938 131.664062 C 278.542969 127.859375 280.371094 124.960938 284.371094 124.164062 C 288.066406 123.429688 291.328125 124.207031 292.828125 128.140625 C 294.234375 131.824219 293.769531 135.214844 290.453125 137.777344 C 287.714844 139.898438 284.785156 141.792969 282.15625 144.039062 C 273.09375 151.78125 273.679688 152.007812 270.023438 162.9375 C 268.15625 168.523438 270 170.488281 274.3125 172.835938 C 284.070312 178.144531 291.121094 177.226562 299.125 168.902344 C 298.199219 167.757812 296.5625 166.648438 296.460938 165.410156 C 296.242188 162.796875 296.199219 159.835938 297.230469 157.53125 C 298.742188 154.164062 302.527344 153.863281 305.398438 154.980469 C 307.503906 155.800781 309.035156 158.359375 310.539062 160.359375 C 311.214844 161.261719 311.195312 162.6875 311.988281 163.671875 C 314.511719 162.949219 316.535156 162.433594 317.5625 162.167969 C 316.210938 156.203125 314.230469 150.574219 313.890625 144.847656 C 313.660156 141 312.53125 138.804688 309.558594 136.996094 C 308.285156 138.253906 307.300781 139.449219 306.097656 140.363281 C 302.714844 142.929688 298.285156 142.289062 295.707031 138.988281 C 293.523438 136.195312 293.984375 130.972656 296.609375 128.691406 C 299.425781 126.25 304.664062 126.65625 307.367188 129.269531 C 309.742188 131.566406 312.371094 133.601562 314.011719 135.003906 C 320.121094 131.222656 325.347656 128.019531 330.527344 124.742188 C 331.089844 124.386719 331.601562 123.675781 331.777344 123.03125 C 333.082031 118.277344 331.339844 112.246094 327.074219 109.855469 C 320.652344 106.257812 315.867188 101.199219 311.402344 95.515625 C 307.226562 90.203125 299.230469 90.675781 295.125 96.003906 C 293.035156 98.714844 290.953125 101.457031 288.628906 103.957031 C 283.132812 109.871094 277.976562 116.226562 270.027344 119.175781 C 261.359375 122.390625 254.269531 118.339844 252.9375 109.308594 C 252.640625 107.308594 252.726562 105.214844 252.1875 103.292969 C 251.226562 99.878906 250.347656 96.296875 248.53125 93.34375 C 247.886719 92.300781 244.585938 92.976562 242.519531 92.714844 C 238.859375 92.246094 236.179688 88.917969 236.292969 85.136719 C 236.417969 81.046875 239.753906 77.816406 243.878906 77.804688 C 247.714844 77.792969 250.828125 80.484375 251.230469 84.230469 C 251.414062 85.910156 250.890625 87.976562 251.6875 89.226562 C 255.550781 95.246094 256.339844 102.007812 257.277344 108.824219 C 257.953125 113.734375 260.40625 115.757812 265.238281 115.339844 C 267.621094 115.136719 270.527344 114.582031 272.152344 113.066406 C 278.601562 107.046875 284.808594 100.75 290.757812 94.234375 C 294.230469 90.433594 293.835938 88.050781 289.597656 85.238281 C 287.667969 83.957031 285.050781 83.71875 282.75 82.988281 C 279.417969 81.921875 275.714844 81.425781 272.855469 79.605469 C 269.667969 77.578125 267.375 74.195312 264.464844 71.660156 C 254.777344 63.222656 246.058594 61.867188 240.417969 69.597656 C 233.277344 62.804688 217.449219 56.238281 207.859375 56.347656 C 206.148438 56.371094 203.789062 56.957031 202.867188 58.15625 C 199.179688 62.949219 199.929688 75.746094 204.230469 80.332031 C 209.519531 85.976562 215.375 91.089844 220.683594 96.714844 C 226.398438 102.773438 232.167969 108.570312 233.207031 117.867188 C 234.089844 125.761719 236.097656 133.820312 239.230469 141.109375 C 244.152344 152.558594 246.351562 163.488281 240.492188 175.214844 C 238.164062 179.871094 240.703125 186.953125 244.855469 189.84375 C 248.507812 192.386719 254.179688 191.699219 255.644531 188.542969 C 257.863281 183.757812 261.933594 182.25 266.171875 184.636719 C 270.148438 186.878906 271.164062 191.363281 268.636719 195.488281 C 266.410156 199.117188 261.464844 199.777344 257.589844 197.085938 C 256.539062 196.359375 255.203125 195.546875 254.023438 195.585938 C 239.414062 196.089844 232.035156 185.929688 237.148438 172.082031 C 239.226562 166.453125 241.171875 160.757812 239.210938 154.792969 C 236.578125 146.769531 233.53125 138.882812 230.5625 130.675781 C 227.867188 133.984375 227.242188 136.746094 229 140.484375 C 230.90625 144.527344 228.433594 148.515625 224.09375 149.980469 C 220.535156 151.183594 215.972656 148.734375 214.769531 144.976562 C 213.546875 141.164062 215.65625 136.976562 219.503906 135.550781 C 220.65625 135.128906 222.039062 134.972656 222.910156 134.222656 C 228.339844 129.546875 230.863281 117.183594 226.664062 111.246094 C 222.304688 105.078125 216.777344 99.714844 211.597656 94.15625 C 205.617188 87.738281 197.46875 82.734375 196.59375 72.949219 C 196.21875 68.734375 197.425781 64.398438 197.671875 60.101562 C 197.777344 58.253906 197.964844 55.519531 196.914062 54.65625 C 193.152344 51.585938 188.917969 49.128906 183.707031 51.785156 C 179.664062 53.847656 175.636719 53.257812 171.492188 51.757812 C 159.65625 47.472656 154.054688 51.960938 155.757812 64.382812 C 155.945312 65.746094 157.210938 67.429688 158.445312 68.089844 C 163.085938 70.582031 164.925781 74.839844 162.820312 79.195312 C 161.136719 82.675781 156.355469 84.011719 152.742188 82.011719 C 148.226562 79.515625 147.492188 75.519531 150.46875 70.464844 C 151.128906 69.34375 151.625 67.96875 151.6875 66.683594 C 151.898438 62.511719 151.566406 58.292969 152.046875 54.164062 C 152.34375 51.589844 151.632812 50.613281 149.296875 50.59375 C 145.113281 50.5625 140.847656 50.128906 136.757812 50.769531 C 128.714844 52.027344 126.71875 55.347656 127.847656 63.410156 C 128.320312 66.796875 128.097656 70.273438 128.511719 73.667969 C 128.757812 75.667969 129.269531 77.816406 130.304688 79.503906 C 132.921875 83.773438 132.242188 88.292969 128.203125 90.910156 C 124.546875 93.277344 119.675781 91.84375 117.417969 87.738281 C 115.566406 84.375 117.191406 78.949219 121.214844 77.523438 C 123.996094 76.535156 124.417969 74.894531 124.378906 72.703125 C 124.328125 70.0625 124.183594 67.375 123.609375 64.8125 C 123.378906 63.785156 122.03125 62.546875 120.953125 62.246094 C 109.128906 58.925781 93.753906 66.976562 89.722656 78.597656 C 89.277344 79.886719 89.179688 81.984375 89.921875 82.875 C 92.75 86.261719 95.984375 89.304688 99.320312 92.738281 C 100.296875 91.347656 100.683594 90.875 100.984375 90.355469 C 103.128906 86.667969 106.910156 86.242188 109.921875 87.65625 C 112.117188 88.6875 114.445312 91.96875 114.5 94.300781 C 114.554688 96.585938 112.316406 99.824219 110.171875 101.042969 C 107.085938 102.804688 103.660156 101.921875 101.03125 98.761719 C 99.515625 96.9375 97.234375 95.753906 95.296875 94.28125 C 94.808594 94.617188 94.320312 94.957031 93.832031 95.296875 C 94.816406 98.738281 95.664062 102.226562 96.816406 105.609375 C 98.09375 109.351562 96.703125 113.765625 93.484375 115.320312 C 89.777344 117.105469 85.453125 115.902344 83.257812 112.476562 C 81.222656 109.304688 82.039062 104.761719 85.324219 102.519531 C 86.773438 101.53125 88.625 101.128906 90.84375 100.242188 C 89.847656 96.402344 89.003906 92.628906 87.871094 88.949219 C 86.921875 85.867188 84.867188 84.78125 81.46875 85.402344 C 70.605469 87.390625 61.519531 91.929688 55.265625 101.492188 C 50.925781 108.132812 52.273438 113.113281 60.015625 116.429688 C 60.375 116.050781 60.785156 115.613281 61.203125 115.183594 C 64.910156 111.367188 69.714844 111.359375 72.957031 115.164062 C 75.519531 118.171875 74.90625 123.683594 71.742188 126.066406 C 67.769531 129.058594 63.265625 127.929688 60.265625 123.367188 C 59.464844 122.152344 58.132812 121.285156 57.046875 120.253906 C 56.511719 120.640625 55.976562 121.023438 55.441406 121.410156 C 56.652344 123.675781 58.472656 125.835938 58.902344 128.242188 C 59.339844 130.667969 59.21875 134.019531 57.824219 135.726562 C 56.386719 137.492188 52.953125 138.765625 50.699219 138.390625 C 48.648438 138.050781 46.207031 135.53125 45.367188 133.40625 C 43.644531 129.058594 45.644531 126.164062 51.34375 123.273438 C 50.859375 121.089844 50.167969 118.859375 49.910156 116.578125 C 49.414062 112.253906 46.34375 111.207031 43.3125 112.558594 C 40.105469 113.988281 36.433594 116.3125 34.933594 119.25 C 31.363281 126.242188 28.84375 133.789062 26.144531 141.199219 C 25.320312 143.460938 24.339844 146.339844 25.046875 148.375 C 28.515625 158.351562 34.695312 166.238281 45.101562 169.65625 C 52.46875 172.078125 59.214844 165.902344 58.253906 158.195312 C 57.929688 155.574219 57.789062 152.910156 57.859375 150.273438 C 58.035156 143.300781 61.964844 139.21875 68.800781 138.785156 C 72.691406 138.539062 76.617188 138.652344 80.480469 138.199219 C 87.496094 137.378906 94.792969 137.0625 99.984375 131 C 99.164062 129.964844 98.46875 129.304688 98.035156 128.5 C 95.960938 124.679688 97.597656 119.710938 101.507812 117.773438 C 104.742188 116.167969 109.527344 117.679688 111.292969 120.863281 C 113.113281 124.136719 111.390625 129.53125 108.058594 131.472656 C 105.839844 132.765625 103.804688 134.375 101.613281 135.722656 C 99.253906 137.167969 96.945312 139.210938 94.371094 139.699219 C 86.769531 141.144531 79.074219 142.175781 71.371094 142.945312 C 63.820312 143.695312 61.136719 146.746094 62.054688 154.261719 C 62.429688 157.339844 62.429688 160.46875 62.761719 163.554688 C 62.933594 165.175781 63.039062 167.039062 63.894531 168.308594 C 68.152344 174.59375 69.523438 181.054688 66.019531 188.128906 C 64.726562 190.742188 63.515625 193.398438 62.3125 195.9375 C 69.257812 201.445312 69.40625 202.980469 64.339844 210.25 C 63.804688 211.015625 63.507812 212.398438 63.816406 213.222656 C 64.953125 216.230469 65.902344 219.5 67.808594 221.984375 C 73.351562 229.203125 81.785156 230.746094 90.066406 232.535156 C 93.023438 233.171875 96.003906 234.195312 98.664062 235.621094 C 102.46875 237.664062 105.175781 241.890625 110.355469 241.132812 C 110.984375 241.039062 111.796875 241.664062 112.410156 242.109375 C 115.644531 244.464844 116.546875 247.789062 114.84375 251.175781 C 113.261719 254.332031 110.519531 256.617188 106.484375 255.746094 C 102.566406 254.898438 99.824219 251.410156 100.699219 247.402344 C 101.410156 244.132812 100.929688 241.742188 98.015625 240.390625 C 94.539062 238.777344 90.949219 237.140625 87.230469 236.371094 C 73.472656 233.507812 61.90625 228.335938 58.96875 212.632812 C 58.792969 211.710938 57.578125 210.828125 56.652344 210.21875 C 52.957031 207.789062 51.960938 202.847656 54.238281 199.238281 C 57.160156 194.601562 59.972656 189.882812 62.539062 185.042969 C 64.789062 180.796875 63.992188 176.683594 61.335938 172.71875 C 59.957031 170.667969 58.828125 170.742188 56.730469 171.703125 C 53.996094 172.960938 50.765625 174.605469 48.070312 174.160156 C 42.78125 173.285156 37.714844 171.082031 32.378906 169.371094 C 32.59375 170.273438 32.492188 173.230469 33.550781 173.726562 C 38.0625 175.84375 42.824219 177.609375 47.671875 178.773438 C 51.609375 179.714844 54.820312 182.980469 54.339844 186.9375 C 53.835938 191.101562 50.222656 193.992188 46.160156 193.488281 C 42.148438 192.992188 38.269531 188.859375 39.582031 185.394531 C 41.34375 180.746094 38.273438 179.96875 35.507812 178.824219 C 32.863281 177.734375 30.050781 177.054688 28.339844 176.519531 C 28.339844 172.757812 29.117188 169.449219 28.171875 166.738281 C 26.417969 161.710938 23.855469 156.910156 21.066406 152.363281 C 20.710938 151.78125 16.761719 152.878906 14.910156 153.949219 C 13.878906 154.550781 13.703125 156.679688 13.207031 158.144531 C 9.871094 167.941406 9.234375 177.933594 11.324219 188.046875 C 12.554688 193.992188 13.300781 194.179688 19.289062 193.285156 C 23.472656 192.664062 27.703125 192.796875 31.050781 196.144531 C 33.832031 198.925781 34.292969 205.5 32.082031 209.917969 C 30.472656 213.128906 27.710938 215.003906 24.511719 213.773438 C 22.105469 212.847656 19.210938 210.445312 18.671875 208.1875 C 18.140625 205.96875 19.828125 202.738281 21.445312 200.648438 C 22.539062 199.234375 25.195312 199.03125 27.089844 198.3125 C 22.722656 195.753906 17.3125 196.410156 16.5 199.808594 C 14.695312 207.347656 15.394531 216.988281 24.585938 222.152344 C 27.398438 223.734375 30.394531 225 33.40625 226.460938 C 33.335938 226.632812 33.238281 227.082031 32.996094 227.429688 C 20.246094 245.597656 25.710938 266.804688 45.757812 276.539062 C 46.933594 277.113281 48.644531 277.121094 49.957031 276.785156 C 55.269531 275.429688 58.648438 277.230469 60.523438 282.394531 C 60.984375 283.671875 62.03125 285.160156 63.195312 285.6875 C 71.625 289.496094 80.433594 292.808594 89.757812 291.558594 C 100.042969 290.179688 110.179688 287.628906 120.34375 285.40625 C 122.855469 284.855469 125.757812 285.054688 126.773438 281.207031 C 127.800781 277.320312 131.40625 275.136719 135.191406 276.734375 C 137.601562 277.753906 140.074219 280.625 140.804688 283.160156 C 141.828125 286.710938 139.496094 289.546875 136.09375 291.390625 C 134.519531 292.242188 133.078125 293.691406 132.105469 295.207031 C 130.863281 297.140625 129.816406 299.339844 129.28125 301.566406 C 127.71875 308.066406 120.890625 313.75 126.066406 321.359375 C 126.289062 321.683594 126.207031 322.296875 126.105469 322.742188 C 125.414062 325.777344 127.082031 327.09375 129.617188 328.136719 C 133.195312 329.605469 136.632812 329.925781 139.734375 327.34375 C 142.945312 324.671875 146.203125 321.972656 148.957031 318.859375 C 150.273438 317.367188 151.070312 314.886719 151.070312 312.855469 C 151.0625 307.496094 153.589844 304.253906 158.859375 303.71875 C 159.894531 303.613281 161.265625 303.589844 161.863281 302.949219 C 166.214844 298.316406 170.40625 293.535156 174.476562 288.992188 C 169.402344 286.742188 165.128906 285.214844 161.234375 283.019531 C 157.191406 280.742188 154.097656 277.617188 154.519531 272.175781 C 154.628906 270.761719 153.234375 268.582031 151.914062 267.824219 C 147.613281 265.351562 143.066406 263.300781 138.546875 261.226562 C 131.648438 258.058594 126.621094 253.613281 125.972656 245.367188 C 125.785156 242.972656 124.621094 240.464844 123.304688 238.386719 C 120.988281 234.722656 121.390625 230.15625 124.761719 227.503906 C 127.898438 225.03125 132.554688 225.738281 135.164062 229.082031 C 137.648438 232.265625 137.128906 236.925781 133.992188 239.597656 C 129.125 243.738281 129.101562 249.910156 134.582031 253.476562 C 139.363281 256.589844 144.730469 258.800781 149.886719 261.3125 C 154.839844 263.722656 159.242188 266.316406 158.835938 272.996094 C 158.742188 274.523438 160.007812 276.777344 161.332031 277.621094 C 164.835938 279.847656 168.546875 282.027344 172.480469 283.222656 C 177.722656 284.808594 180.421875 283.046875 183.105469 278.503906 C 183.949219 277.078125 185.703125 275.917969 187.296875 275.285156 C 189.445312 274.4375 191.828125 274.128906 194.136719 273.761719 C 197.132812 273.285156 198.359375 271.371094 198.527344 268.617188 C 198.703125 265.734375 200.644531 262.730469 196.828125 260.296875 C 192.550781 257.574219 191.972656 252.421875 194.910156 248.894531 C 197.601562 245.664062 202.535156 245.394531 205.765625 248.304688 C 209.320312 251.503906 209.199219 255.917969 205.621094 259.851562 C 204.675781 260.890625 203.832031 262.246094 203.523438 263.589844 C 202.863281 266.449219 202.378906 269.386719 202.230469 272.308594 C 202.140625 274.15625 202.785156 276.039062 203.277344 278.964844 C 211.976562 272.199219 219.488281 273.03125 227.203125 278.164062 C 229.371094 279.609375 232.6875 280.546875 235.171875 280.085938 C 249.40625 277.453125 261.394531 271.148438 267.53125 257.121094 C 273.472656 243.539062 270.496094 234.949219 258.011719 226.945312 C 249.007812 221.175781 238.746094 219.941406 228.605469 218.550781 C 218.109375 217.109375 207.773438 215.960938 197.941406 211.203125 C 191.183594 207.933594 183.539062 206.417969 176.199219 204.449219 C 168.128906 202.289062 159.679688 201.242188 151.894531 198.359375 C 142.804688 194.996094 134.707031 189.417969 128.679688 181.613281 C 127.105469 179.578125 126.007812 178.851562 123.539062 178.992188 C 118.109375 179.296875 115.300781 176.667969 115.308594 171.8125 C 115.3125 167.5625 118.332031 164.417969 122.554688 164.253906 C 126.867188 164.089844 129.921875 167.65625 130.429688 172.386719 C 130.726562 175.128906 131.472656 178.476562 133.28125 180.292969 C 144.976562 192.070312 159.054688 198.960938 176.539062 199.773438 C 172.121094 193.277344 171.855469 186.398438 173.722656 179.703125 C 177.375 166.597656 172.726562 156.046875 165.035156 145.921875 C 162.921875 143.144531 162.191406 139.328125 160.738281 136.023438 C 160.003906 134.347656 159.402344 132.421875 158.164062 131.195312 C 155.0625 128.128906 154.328125 123.203125 156.925781 120.214844 C 159.820312 116.882812 164.445312 116.546875 167.730469 119.425781 C 171.519531 122.746094 171.695312 126.578125 168.234375 130.378906 C 163.980469 135.054688 163.746094 137.9375 167.960938 142.980469 C 177.679688 154.601562 181.71875 167.375 177.609375 182.464844 C 175.664062 189.617188 177.328125 196.152344 184.214844 200.34375 C 189.226562 203.394531 194.761719 204.179688 200.410156 203.054688 C 203.515625 202.4375 206.484375 200.910156 206.21875 196.878906 C 205.511719 186.253906 208.101562 176.273438 211.230469 166.214844 C 213.484375 158.960938 212.847656 151.296875 205.941406 146.421875 C 199.691406 142.015625 195.316406 137.074219 193.53125 129.277344 C 192.140625 123.199219 188.886719 122.03125 183.09375 123.039062 C 179.019531 123.75 175.144531 121.003906 174.582031 117.007812 C 173.929688 112.375 176.496094 108.613281 180.6875 108.074219 C 185.089844 107.507812 188.761719 110.289062 189.429688 114.457031 C 189.683594 116.03125 190.03125 118.125 191.113281 118.941406 C 195.78125 122.4375 197.746094 127.289062 199.515625 132.566406 C 200.367188 135.113281 202.382812 137.675781 204.566406 139.289062 C 210.113281 143.382812 214.867188 147.796875 216.214844 154.957031 C 217.511719 161.832031 215.890625 168.246094 213.480469 174.570312 C 210.527344 182.320312 209.757812 190.28125 211.222656 198.441406 C 212.226562 204.019531 214.796875 208.410156 220.605469 210.117188 C 228.03125 212.296875 235.421875 214.644531 242.933594 216.496094 C 258.242188 220.261719 271.476562 226.328125 275.644531 244.230469 C 279.023438 243.046875 282.464844 242.121094 285.652344 240.65625 C 289.113281 239.0625 292.238281 238.703125 295.910156 240.238281 C 300.175781 242.023438 304.710938 243.953125 309.207031 244.164062 C 313.074219 244.347656 317.257812 242.625 320.871094 240.867188 C 322.144531 240.246094 321.925781 236.910156 322.785156 234.996094 C 323.699219 232.964844 324.714844 230.703125 326.347656 229.332031 C 329.011719 227.09375 332.210938 225.492188 335.558594 223.386719 C 334.867188 222.898438 334.492188 222.632812 334.113281 222.371094 C 329.71875 219.28125 328.660156 214.484375 331.554688 210.78125 C 333.882812 207.808594 338.976562 207.296875 342.164062 209.714844 C 345.710938 212.402344 345.351562 216.949219 342.71875 221.382812 C 339.472656 226.839844 334.121094 229.195312 329.347656 232.53125 C 326.007812 234.867188 326.113281 238.148438 329.34375 240.503906 C 334.222656 244.054688 339.789062 243.449219 344.179688 239.289062 C 346.824219 236.78125 349.855469 234.660156 352.792969 232.472656 C 360.984375 226.371094 367.195312 219.207031 366.570312 208.097656 C 366.375 204.660156 365.429688 202.5 361.316406 202.910156 C 359.378906 203.101562 357.128906 202.796875 355.402344 201.945312 C 352.214844 200.371094 349.679688 199.867188 346.214844 201.929688 C 342.570312 204.097656 338.035156 201.851562 336.5 198.214844 C 334.9375 194.511719 336.632812 190.183594 340.371094 188.339844 C 343.847656 186.628906 348.339844 187.804688 349.976562 191.484375 C 352.519531 197.199219 357.15625 198.460938 362.691406 198.789062 C 367.140625 199.050781 368.96875 196.796875 368.332031 192.898438 C 367.40625 187.246094 366.871094 181.171875 364.328125 176.222656 C 360.753906 169.261719 355.921875 162.820312 346.734375 161.949219 C 343.769531 161.667969 340.863281 159.992188 338.09375 158.625 C 335.183594 157.179688 332.519531 155.253906 329.664062 153.691406 C 325.890625 151.628906 325.308594 147.941406 326.601562 144.824219 C 327.53125 142.585938 330.457031 140.507812 332.925781 139.730469 C 336.59375 138.578125 339.621094 141.070312 340.277344 144.503906 C 340.839844 147.4375 339.753906 150.691406 339.28125 154.800781 C 342.085938 155.699219 345.527344 156.933594 349.042969 157.894531 C 352.886719 158.941406 355.949219 156.875 356.179688 152.960938 C 356.429688 148.652344 355.820312 144.628906 351.671875 141.894531 C 349.789062 140.65625 347.976562 138.917969 346.851562 136.988281 C 340.898438 126.746094 332.703125 125.285156 323.84375 133.570312 C 321.398438 135.855469 318.976562 139.238281 318.539062 142.394531 C 316.886719 154.265625 323.023438 163.425781 334.300781 167.992188 C 337.582031 169.320312 339.871094 169.882812 342.828125 166.90625 C 345.671875 164.042969 351.445312 165.449219 353.59375 168.667969 C 355.5625 171.625 354.902344 176.453125 352.257812 178.410156 C 348.386719 181.277344 343.546875 181.019531 341.089844 177.296875 C 337.625 172.042969 331.84375 172.433594 326.15625 169.6875 C 326.285156 169.597656 326.398438 169.488281 326.496094 169.359375 C 325.613281 168.820312 324.996094 168.617188 324.382812 168.417969 C 324.5 169.054688 324.621094 169.691406 324.742188 170.328125 C 325.214844 170.179688 325.6875 170.03125 326.0625 169.757812 Z M 121.121094 110.484375 C 118.238281 108.511719 117.890625 106.359375 120.679688 104.683594 C 121.460938 104.210938 124.109375 105.050781 124.363281 105.804688 C 125.125 108.089844 124.921875 110.492188 121.121094 110.484375 Z M 121.121094 110.484375 " fill-opacity="1" fill-rule="evenodd"/></svg>